<?xml version="1.0" encoding="utf-8"?>
<!-- Generator: Adobe Illustrator 21.0.0, SVG Export Plug-In . SVG Version: 6.00 Build 0)  -->
<svg version="1.1" id="图层_1" xmlns="http://www.w3.org/2000/svg" xmlns:xlink="http://www.w3.org/1999/xlink" x="0px" y="0px" viewBox="0 0 40 40"  width="10" height="10" style="enable-background:new 0 0 40 40;" xml:space="preserve">
	<rect class="st0" width="40" height="40" fill="#ffffff"/>
<path d="M20.1,25.6L11,13.7L4.8,27.8v3.9h30.8c-3.9-4.2-12.2-13-12.2-13L20.1,25.6z M30.8,16.6c1.7,0,3.1-1.7,3.1-3.8
	c0-2.1-1.4-3.8-3.1-3.8c-1.7,0-3.1,1.7-3.1,3.8C27.8,14.9,29.1,16.6,30.8,16.6z M0-0.1V40h40V-0.1H0z M38,37.4H2.1l0-34.9h33.6v0H38
	L38,37.4L38,37.4z" />
</svg>
