<?xml version="1.0" encoding="utf-8"?>
<!-- Generator: Adobe Illustrator 21.0.0, SVG Export Plug-In . SVG Version: 6.00 Build 0)  -->
<svg version="1.1" xmlns="http://www.w3.org/2000/svg" xmlns:xlink="http://www.w3.org/1999/xlink" x="0px" y="0px"
	 viewBox="0 0 530 150" style="enable-background:new 0 0 530 150;" xml:space="preserve">
<style type="text/css">
	.st0{display:none;}
	.st1{fill:#BAFFA6;}
	.st2{fill:#A9F9FF;}
	.st3{fill:#FFA4A4;}
</style>
<g id="图层_1" class="st0">
</g>
<g id="图层_2">
	<g>
		<ellipse class="st1" cx="222.6" cy="80.3" rx="87.3" ry="53.2"/>
		<path class="st2" d="M515.5,133.2H320.4c-5.8,0-10.5-4.7-10.5-10.5V37.6c0-5.8,4.7-10.5,10.5-10.5h195.1c5.8,0,10.5,4.7,10.5,10.5
			v85.1C526,128.5,521.3,133.2,515.5,133.2z"/>
		<rect x="5" y="27.3" class="st3" width="130.3" height="105.9"/>
		<g>
			<path d="M34.9,72.6l6.9,18.7c1.3-2.4,3.2-6.8,5.8-13.4c0.9-1.9,1.6-3.8,2.4-5.6c0.4-0.4,1.3-0.3,2.6,0.4c1.9-0.1,2.7,0.4,2.4,1.8
				C49,88,45.9,95,45.4,95.7c-1.2,0.1-2.9,0.2-5.2,0.2c-1.4,0-2.4-0.3-2.8-0.9c-0.1-0.1-0.6-1.3-1.5-3.6c-3.3-8.5-5.4-14.2-6.2-17.4
				c-0.4-0.9,0.4-1.3,2.4-1.1c0.1,0.1,0.4,0,0.9-0.4C33.8,71.7,34.5,71.7,34.9,72.6z"/>
			<path d="M81.9,72.6l0.2,0.7c0,1.9-0.1,4.7-0.2,8.5c-0.3,3.9-0.4,6.7-0.2,8.5c-0.1,0.7-0.1,1.7,0.2,2.9c0.1,1,0.2,1.9,0.2,2.4
				c-0.3,0.9-1.7,1.3-4.3,1.1c-0.6-0.1-1.1-0.3-1.5-0.4C76.1,96,76,95.8,76,95.5c0-0.4,0-0.7,0-0.9c-2.2,1.2-4.3,1.9-6.5,2
				c-7.9,0-11.8-6-11.6-18c0.1-1.3,0.2-2.4,0.2-3.1C58,74,58.3,72.9,59,72.2c0.9-0.1,2.4-0.2,4.7-0.2c0.6,0,0.9,0.2,0.9,0.7
				c-0.1,1.5-0.3,3.3-0.4,5.3C64,79,64,80.1,64,81.3c-0.1,7.3,1.6,10.8,5.2,10.7c4.9,0,7.3-3.6,7.1-10.7c-0.1-0.6-0.3-1.6-0.4-2.9
				c-0.3-1.8-0.4-3.3-0.2-4.7c0-0.4,0.1-0.9,0.4-1.3c0.6-0.3,1.8-0.4,3.7-0.4C80.9,71.9,81.6,72.2,81.9,72.6z"/>
			<path d="M109.7,88.4l0.2,0.4c-1.4,4.6-5.2,7.1-11.4,7.6c-8.5,0-12.6-3.9-12.5-11.8c0.3-8.5,3.5-13.2,9.7-14.2
				c8.9-0.4,13.6,3.8,14.2,12.7c0,1.8-4,3-12.1,3.6c-1.9,0.1-3.2,0.2-3.9,0.2c-0.7,0.1-1,0.6-0.9,1.3c0.3,2.8,2,4.3,5.2,4.5
				c1.7,0,3.2-0.7,4.3-2.2c1.1-1.6,2.8-2.4,5-2.4h0.2C108.6,88,109.2,88.1,109.7,88.4z M93.3,82.4l6.9-0.7c1.7,0,2.7-0.4,2.8-1.3
				c-0.9-3.7-2.7-5.7-5.4-6c-2.2,0.3-3.9,1.6-5.2,3.8C91.1,80.8,91.4,82.2,93.3,82.4z"/>
			<path d="M150.6,78.2v4.2h-32.3v-4.2H150.6z"/>
			<path d="M170.2,61.7l-0.2,0.2c-0.7,0.9-1.1,5.1-1.1,12.7c0,0.6,0.7,0.9,2.2,0.9c1.9-0.1,3,0.1,3.4,0.7c0,0.4,0,0.9,0,1.3
				c0,0.4,0,0.8,0,1.1c0.1,0.6,0.1,1,0,1.1c-0.4,0.3-1.4,0.4-3,0.4c-1.2,0-1.9,0-2.2,0c-0.4,0.4-0.5,3.7-0.2,9.8
				c0.1,1.8,0.2,2.9,0.2,3.3c0,0.1,0,0.3,0,0.4c0.1,1.6-0.6,2.4-2.2,2.4c-0.7,0-1.2,0-1.5,0c-0.7,0.3-1.4,0.2-2.2-0.2
				c-0.3-0.7-0.3-2,0-3.8c0.1-1,0.2-1.9,0.2-2.4v-8.2c0-1-0.9-1.4-2.6-1.1c-1.3,0.1-2.2,0-2.6-0.4c-0.3-0.3-0.4-0.9-0.4-1.8
				c-0.1,0-0.1-0.3,0-0.9c0.1-0.6,0.2-1,0.2-1.1c0.7-0.1,1.9-0.3,3.4-0.4c0.6,0,1.2-0.1,1.9-0.2c-0.6-12.6,1.1-18.8,5-18.5
				c6-0.4,9.6,2.4,10.6,8.7c-0.1,0.1-0.2,0.3-0.2,0.4c-0.9,0.6-2,0.9-3.4,0.9c-0.3,0.1-0.5,0.1-0.6,0c-0.3-0.1-0.5-0.2-0.6-0.2
				c-0.3-0.1-0.6-0.7-0.9-1.6C172.9,62.7,171.8,61.6,170.2,61.7z"/>
			<path d="M178.2,80.8l-0.2-0.7c1.1-5.5,4.4-8.7,9.7-9.6c8.2-0.7,12.2,3.9,12.1,13.8c-0.1,1.3-0.1,3.3,0,5.8
				c0.1,2.5,0.2,4.4,0.2,5.6l-0.2,0.2c-0.6,0.1-1.3,0.1-2.2,0c-0.3,0-0.6,0-0.9,0c-0.4,0-0.8,0.1-1.1,0.2c-1,0.3-1.6,0.4-1.7,0.2
				c-0.3-0.3-0.4-0.6-0.2-0.9v-0.7c-3.2,0.7-5.5,1.2-7.1,1.3c-6-0.1-9.1-2.3-9.3-6.5c0-5.6,5.5-8.5,16.4-8.5c0-0.1,0-0.6,0-1.3
				c0-0.3,0-0.7,0-1.1c-0.3-2.8-1.5-4.3-3.7-4.5c-2.7,0-5,1.7-6.7,5.1c-0.6,1.3-1.1,2-1.5,2c-0.3,0-0.6,0.1-0.9,0.2
				C179.8,81.7,178.9,81.4,178.2,80.8z M193.9,87.5v-1.8c-2-0.7-4.7-0.6-8,0.4c-2.3,0.7-3.4,1.9-3.4,3.3c0.1,2.2,1.3,3.3,3.4,3.3
				C191.1,92.7,193.8,90.9,193.9,87.5z"/>
			<path d="M207.9,96h-2.4c-1,0-1.4-0.1-1.3-0.2c-0.1,0.1-0.1-0.2,0-1.1c0-0.4,0.1-0.9,0.2-1.3c-0.1-3.1-0.2-7.5-0.2-13.1
				c-0.1-6.7-0.2-12.5-0.2-17.6c0-0.3-0.1-0.8-0.4-1.6c0-0.6,0-1,0-1.3c0-0.3,0.1-0.6,0.4-0.9c0.6-0.3,2.2-0.4,4.7-0.4
				c0.4,0.1,0.9,0.3,1.3,0.4c0.3,0.4,0.3,1.9,0,4.5c0,0.6,0,1,0,1.3v10.2c1.7-1,3.6-1.6,5.6-1.8c7.8,0.6,11.9,4.4,12.5,11.3
				c-0.3,7.7-4.9,11.7-13.8,12c-1.2-0.1-2.2-0.3-3-0.4h-0.9c-0.4,0-0.9,0-1.3,0C208.6,96,208.2,96,207.9,96z M210.3,85.7
				c-0.6,4.9,1.1,7.2,5.2,6.9c4.5-0.1,7-2.8,7.5-8c-0.6-4.7-2.4-7.3-5.6-7.6C212.4,77.1,210,79.9,210.3,85.7z"/>
			<path d="M232.1,95.3V80.4c0-0.6-0.1-1.6-0.2-3.1c-0.1-1.6-0.1-3.1,0-4.5c-0.1-0.7,0.1-1.3,0.9-1.6c0.1,0,0.4,0,0.9,0
				c2.3,0.1,3.5,0.3,3.7,0.4l0.4,0.2c0,0.6-0.1,1.3-0.2,2.2c-0.1,0.9-0.1,1.6,0,2v1.1c1.4-3,3.8-4.5,7.1-4.5c2-0.3,2.9,1.7,2.8,6
				c0.3,3.4-0.6,4.7-2.8,4c-1.2,0-1.8-0.4-1.9-1.3c-0.1-0.7-0.4-1.4-0.6-2l-0.4-0.4c-2.7,0.9-4.1,4.2-4.1,10
				c-0.1,0.7-0.1,1.8,0.2,3.1c0.1,1.3,0.2,2.3,0.2,2.9c0,0.3-0.1,0.5-0.2,0.7c-0.7,0.1-1.6,0.2-2.6,0.2l-1.5,0.2
				c-0.6,0-0.9-0.1-1.1-0.2C232.1,95.8,231.9,95.6,232.1,95.3z"/>
			<path d="M258.6,65.9c-0.3,2.7-1.7,4.1-4.1,4.2c-2.6,0-3.9-1.3-3.9-4c0.1-2.2,1.4-3.5,3.9-3.8C256.9,62.7,258.3,63.8,258.6,65.9z
				 M252.3,96l-0.6-0.4c-0.3-0.3-0.3-0.9,0-1.8c0.1-0.4,0.2-0.8,0.2-1.1c0-5.2,0-10.3,0-15.4c0-0.3-0.1-0.7-0.4-1.1
				c-0.1-0.4-0.2-0.8-0.2-1.1c-0.1-1.2,0.9-1.8,3-1.8h0.9c1.1,0,2.1,0.2,2.8,0.7c0,0.6-0.1,1.3-0.2,2.2c0,0.4,0,0.8,0,1.1l-0.2,16
				c0,0.1,0,0.4,0,0.7c0.1,1.3-0.4,2-1.5,2C254.7,96,253.5,96,252.3,96z"/>
			<path d="M287.2,88.2l0.2,0.4c-1,4.3-4.6,7-10.8,8.2c-9.3,0.6-13.9-3.6-13.8-12.5c0.1-8.5,3.2-13.1,9.3-13.8
				c9.1-0.9,13.9,3,14.4,11.8c0,0.3-0.1,0.7-0.2,1.1c-0.4,0.3-0.9,0.4-1.3,0.2c-1.4,0.1-2.7,0.1-3.7-0.2c-0.4-0.1-0.8-1-1.1-2.4
				c-1-4-2.6-6.1-4.7-6.2c-4.9,0-7.1,3.4-6.7,10.2c0,4.6,1.8,7.1,5.4,7.6c1.4-0.1,2.6-0.4,3.4-0.9c0.3-0.1,0.7-0.6,1.3-1.3
				c1.7-1.9,3-2.9,3.9-2.9c0.1,0,0.3,0,0.4,0C285.6,87.5,286.9,87.7,287.2,88.2z"/>
			<path d="M328.4,78.2v4.2h-32.3v-4.2H328.4z"/>
			<path d="M337.9,75.5l-0.2-0.4c-0.3-1.5-0.2-2.5,0.2-3.1c0.1-0.3,1.1-0.5,2.8-0.7c0.1,0,0.3,0,0.4,0c1.4,0,2.4,0.1,2.8,0.4
				c0.1,0.6,0.2,1.5,0.2,2.7c1.1-0.6,2.4-1,3.7-1.1c4.9,0,8.1,1.1,9.7,3.3c2.6-1.9,5.5-2.9,8.6-2.9c6.6,0,9.9,2.8,9.9,8.5
				c0,0.7,0,1.6,0,2.4c0.3,6.2,0,9.9-0.9,11.1c-0.9,0.1-1.7,0.2-2.4,0.2c-0.4,0-0.8,0-1.1,0c-1.7,0.1-2.4-0.2-2.2-1.1
				c0-0.1,0-0.4,0-0.9c0.3-3.7,0.4-6.6,0.4-8.7c-0.1-4.7-1.3-7.2-3.4-7.3c-5.6-0.6-8,4.4-7.1,14.9c0,0.1,0,0.3,0,0.4
				c0,0.9-0.1,1.4-0.4,1.6c-0.9,0.3-1.7,0.4-2.6,0.4c-0.3,0-0.6,0.1-1.1,0.2c-1.6,0.3-2.3-0.2-2.2-1.6c0.4-3.7,0.6-7.2,0.6-10.5
				c0.1-2.7-0.5-4.5-1.9-5.6c-0.6-0.1-1.1-0.2-1.5-0.2c-5.3-1.5-7.5,4-6.7,16.5c0,0.9-0.1,1.5-0.4,1.8c-0.7,0-1.4,0-1.9,0
				c-0.4,0-1.1,0-1.9,0c-1.4,0.1-2-0.1-1.7-0.7c0-2.2,0-4.9,0-8C337.8,84.8,337.9,80.8,337.9,75.5z"/>
			<path d="M379.7,83.5c0.4-7.9,3.8-12,10.1-12.5c10.5,0.3,15.9,4.5,16.2,12.7c-0.1,8.2-4.3,12.3-12.5,12.5
				C384.5,96,379.9,91.8,379.7,83.5z M385.7,84.2c0.7,4.9,3,7.5,6.9,7.8c4.5-0.1,6.9-2.8,7.3-8c0-4.7-2.2-7.4-6.5-8
				C388.1,75.2,385.6,77.9,385.7,84.2z"/>
			<path d="M435.3,59l0.4,0.9c0,0.1-0.1,1.7-0.2,4.7c0,6.5,0,10,0,10.5v18l0.2,1.8c0,0.6-0.1,1-0.4,1.1c-0.4,0-1.8,0-4.1,0h-0.4
				c-1,0-1.3-0.7-0.9-2c-2.3,1.5-5,2.3-8.2,2.4c-7.2-0.1-10.8-3.9-10.8-11.3c-0.1-7.7,3.3-12.1,10.3-13.1c3.3,0,6.2,0.7,8.6,2.2
				c0-2.1-0.1-4.7-0.4-8c-0.1-2.4-0.2-4.4-0.2-6c-0.1-1.3,0.6-2,2.4-2C433,58.3,434.3,58.6,435.3,59z M429.9,85.7v-2.9
				c-1.3-3.9-3.1-5.9-5.4-6c-6.2-0.1-9.1,2.9-8.6,9.1c0.4,4.6,2.9,6.7,7.3,6.2C427.4,91.3,429.6,89.1,429.9,85.7z"/>
			<path d="M464.3,72.6l0.2,0.7c0,1.9-0.1,4.7-0.2,8.5c-0.3,3.9-0.4,6.7-0.2,8.5c-0.1,0.7-0.1,1.7,0.2,2.9c0.1,1,0.2,1.9,0.2,2.4
				c-0.3,0.9-1.7,1.3-4.3,1.1c-0.6-0.1-1.1-0.3-1.5-0.4c-0.1-0.1-0.2-0.4-0.2-0.7c0-0.4,0-0.7,0-0.9c-2.2,1.2-4.3,1.9-6.5,2
				c-7.9,0-11.8-6-11.6-18c0.1-1.3,0.2-2.4,0.2-3.1c-0.1-1.5,0.1-2.6,0.9-3.3c0.9-0.1,2.4-0.2,4.7-0.2c0.6,0,0.9,0.2,0.9,0.7
				c-0.1,1.5-0.3,3.3-0.4,5.3c-0.1,1-0.2,2.2-0.2,3.3c-0.1,7.3,1.6,10.8,5.2,10.7c4.9,0,7.3-3.6,7.1-10.7c-0.1-0.6-0.3-1.6-0.4-2.9
				c-0.3-1.8-0.4-3.3-0.2-4.7c0-0.4,0.1-0.9,0.4-1.3c0.6-0.3,1.8-0.4,3.7-0.4C463.3,71.9,464.1,72.2,464.3,72.6z"/>
			<path d="M471.7,58.8h0.6c1.7,0,3,0.1,3.9,0.4c0.1,0.4,0.2,0.9,0.2,1.3c0,0.3-0.1,0.7-0.4,1.1c-0.3,0.4-0.4,0.7-0.2,0.9
				c0,3,0,7.5,0,13.6c0.1,6.1,0.2,10.6,0.2,13.6c0,0.7,0,1.5,0,2.2c0.3,1.6,0.4,2.8,0.2,3.6l-0.4,0.4c-1.2,0-2.1,0-2.8,0h-2.8
				l-0.6-0.2c0-0.1,0-0.4,0-0.9c0.4-1.2,0.7-2.3,0.9-3.3c0-2.2,0-5.9,0-10.9c0-2.5-0.1-5.3-0.2-8.5c0-3.3,0-6.5,0-9.6
				c0-0.1-0.1-0.4-0.4-0.9c-0.3-0.4-0.3-1,0-1.6C470.5,59.2,471.1,58.8,471.7,58.8z"/>
			<path d="M504.2,88.4l0.2,0.4c-1.4,4.6-5.2,7.1-11.4,7.6c-8.5,0-12.6-3.9-12.5-11.8c0.3-8.5,3.5-13.2,9.7-14.2
				c8.9-0.4,13.6,3.8,14.2,12.7c0,1.8-4,3-12.1,3.6c-1.9,0.1-3.2,0.2-3.9,0.2c-0.7,0.1-1,0.6-0.9,1.3c0.3,2.8,2,4.3,5.2,4.5
				c1.7,0,3.2-0.7,4.3-2.2c1.1-1.6,2.8-2.4,5-2.4h0.2C503.1,88,503.8,88.1,504.2,88.4z M487.8,82.4l6.9-0.7c1.7,0,2.7-0.4,2.8-1.3
				c-0.9-3.7-2.7-5.7-5.4-6c-2.2,0.3-3.9,1.6-5.2,3.8C485.7,80.8,486,82.2,487.8,82.4z"/>
		</g>
	</g>
</g>
</svg>
