<?xml version="1.0" encoding="utf-8"?>
<!-- Generator: Adobe Illustrator 21.0.0, SVG Export Plug-In . SVG Version: 6.00 Build 0)  -->
<svg version="1.1" id="图层_1" xmlns="http://www.w3.org/2000/svg" xmlns:xlink="http://www.w3.org/1999/xlink" x="0px" y="0px"
	 viewBox="0 0 19.9 20" width="20" height="20" style="enable-background:new 0 0 19.9 20;" xml:space="preserve">
<style type="text/css">
	.st0{fill:#2C2C2C;}
</style>
<path class="st0" d="M2.3,0L2.3,0H0.5C0.2,0,0,0.3,0,0.7v18.1C0,19.5,0.3,20,0.7,20s0.7-0.5,0.7-1.1V14c0.1,0,0.1,0,0.1,0h16.7
	c0.1,0,0.1,0,0.1,0v5.4c0,0,0,0,0,0.1c0.7,1.1,1.5,0.4,1.5-0.6V0.7C20,0.3,19.8,0,19.5,0H2.3z M18.5,11.8c-0.1,0-0.1,0-0.1,0H1.7
	c-0.1,0-0.1,0-0.1,0V2.2h17L18.5,11.8L18.5,11.8z"/>
</svg>
