<svg xmlns="http://www.w3.org/2000/svg" viewBox="0 0 18 18" class="design-iconfont" >
  <g fill="none" fill-rule="evenodd">
    <rect fill="#FFF" width="18" height="18" rx="9"/>
    <path d="M9,0 C13.9705627,0 18,4.02943725 18,9 C18,13.9705627 13.9705627,18 9,18 C4.02943725,18 0,13.9705627 0,9 C0,4.02943725 4.02943725,0 9,0 Z M9,0.434482759 C4.26939545,0.434482759 0.434482759,4.26939545 0.434482759,9 C0.434482759,13.7306045 4.26939545,17.5655172 9,17.5655172 C13.7306045,17.5655172 17.5655172,13.7306045 17.5655172,9 C17.5655172,4.26939545 13.7306045,0.434482759 9,0.434482759 Z" fill="#979797" fill-rule="nonzero"/>
    <path d="M10.5517241,5.27586207 C11.9229139,5.27586207 13.0344828,6.38743097 13.0344828,7.75862069 L13.0344828,10.5517241 C13.0344828,11.9229139 11.9229139,13.0344828 10.5517241,13.0344828 L7.75862069,13.0344828 C6.38743097,13.0344828 5.27586207,11.9229139 5.27586207,10.5517241 L5.27586207,7.75862069 C5.27586207,6.38743097 6.38743097,5.27586207 7.75862069,5.27586207 L10.5517241,5.27586207 Z M10.5517241,5.71034483 L7.75862069,5.71034483 C6.62738917,5.71034483 5.71034483,6.62738917 5.71034483,7.75862069 L5.71034483,10.5517241 C5.71034483,11.6829557 6.62738917,12.6 7.75862069,12.6 L10.5517241,12.6 C11.6829557,12.6 12.6,11.6829557 12.6,10.5517241 L12.6,7.75862069 C12.6,6.62738917 11.6829557,5.71034483 10.5517241,5.71034483 Z" fill="#979797" fill-rule="nonzero"/>
    <path d="M9.47793448,9.22286992 C9.40427242,9.15559094 9.31966202,9.10237407 9.31966202,9.10237407 C9.2491888,9.05675439 9.18328623,9.0236993 9.12751707,8.99966587 C9.5057482,8.83132232 9.93103448,8.40613523 9.93103448,7.75862069 L9.12921778,7.75862069 C9.11795057,8.08544606 9.07685004,8.46545177 8.8121414,8.89750555 C8.5657154,9.28759215 8.46431048,9.42036039 8.37931034,9.82746763 L8.89498021,9.82746763 C8.89498021,9.82746763 8.9361516,9.66193649 8.92846297,9.42149267 C9.08687715,9.68922064 9.14434702,9.94949753 9.12950123,10.240565 C9.63351414,10.2418068 9.93103448,10.2412589 9.93103448,10.2412589 C9.93184727,9.77140181 9.69987732,9.42554694 9.47793448,9.22286992" fill="#345FA5"/>
    <path d="M8.68965517,8.06896552 L8.06896552,8.07142702 L8.06896552,9.31034483 C8.06896552,9.31034483 8.57590063,8.80516142 8.68965517,8.06896552" fill="#3AA76F"/>
  </g>
</svg>
