<svg xmlns="http://www.w3.org/2000/svg" viewBox="0 0 37 19" class="design-iconfont">
  <g fill="none" fill-rule="evenodd">
    <path fill="#EBEBEB" d="M0 0H18V18H0z" transform="translate(19 1)"/>
    <path d="M18,0 L18,18 L0,18 L0,0 L18,0 Z M17.5,0.5 L0.5,0.5 L0.5,17.5 L17.5,17.5 L17.5,0.5 Z" fill="#979797" fill-rule="nonzero" transform="translate(19 1)"/>
    <path d="M17.2205627,16.8670094 L17.6035534,17.25 L17.25,17.6035534 L16.8670094,17.2205627 L17.2205627,16.8670094 Z M15.8063492,15.4527958 L16.6902327,16.3366793 L16.8670094,16.513456 L16.513456,16.8670094 L16.3366793,16.6902327 L15.4527958,15.8063492 L15.8063492,15.4527958 Z M14.3921356,14.0385822 L14.5689123,14.2153589 L15.2760191,14.9224657 L15.4527958,15.0992424 L15.0992424,15.4527958 L14.9224657,15.2760191 L14.2153589,14.5689123 L14.0385822,14.3921356 L14.3921356,14.0385822 Z M12.9779221,12.6243687 L14.0385822,13.6850288 L13.6850288,14.0385822 L12.6243687,12.9779221 L12.9779221,12.6243687 Z M11.5637085,11.2101551 L12.6243687,12.2708153 L12.2708153,12.6243687 L11.2101551,11.5637085 L11.5637085,11.2101551 Z M10.1494949,9.79594155 L11.2101551,10.8566017 L10.8566017,11.2101551 L9.79594155,10.1494949 L10.1494949,9.79594155 Z M8.73528137,8.38172798 L9.79594155,9.44238816 L9.44238816,9.79594155 L8.38172798,8.73528137 L8.73528137,8.38172798 Z M7.32106781,6.96751442 L8.38172798,8.02817459 L8.02817459,8.38172798 L6.96751442,7.32106781 L7.32106781,6.96751442 Z M5.90685425,5.55330086 L6.79073773,6.43718434 L6.96751442,6.61396103 L6.61396103,6.96751442 L6.43718434,6.79073773 L5.55330086,5.90685425 L5.90685425,5.55330086 Z M4.49264069,4.1390873 L4.66941738,4.31586399 L5.37652416,5.02297077 L5.55330086,5.19974747 L5.19974747,5.55330086 L5.02297077,5.37652416 L4.31586399,4.66941738 L4.1390873,4.49264069 L4.49264069,4.1390873 Z M3.07842712,2.72487373 L4.1390873,3.78553391 L3.78553391,4.1390873 L2.72487373,3.07842712 L3.07842712,2.72487373 Z M1.66421356,1.31066017 L2.72487373,2.37132034 L2.37132034,2.72487373 L1.31066017,1.66421356 L1.66421356,1.31066017 Z M0.25,-0.103553391 L0.426776695,0.0732233047 L1.31066017,0.957106781 L0.957106781,1.31066017 L0.0732233047,0.426776695 L-0.103553391,0.25 L0.25,-0.103553391 Z" fill="#979797" fill-rule="nonzero" transform="translate(19 1)"/>
    <path d="M0.498203922,17.1900304 L0.851757312,17.5435838 L0.645543366,17.7497977 L0.46876667,17.9265744 L0.11521328,17.573021 L0.321427227,17.3668071 L0.498203922,17.1900304 Z M1.91241748,15.7758168 L2.26597087,16.1293702 L1.3820874,17.0132537 L1.2053107,17.1900304 L0.851757312,16.836477 L1.02853401,16.6597003 L1.91241748,15.7758168 Z M3.32663105,14.3616033 L3.68018444,14.7151566 L3.50340774,14.8919333 L2.79630096,15.5990401 L2.61952427,15.7758168 L2.26597087,15.4222634 L2.44274757,15.2454867 L3.14985435,14.53838 L3.32663105,14.3616033 Z M4.74084461,12.9473897 L5.094398,13.3009431 L4.03373783,14.3616033 L3.68018444,14.0080499 L4.74084461,12.9473897 Z M6.15505817,11.5331761 L6.50861156,11.8867295 L5.44795139,12.9473897 L5.094398,12.5938363 L6.15505817,11.5331761 Z M7.56927173,10.1189626 L7.92282512,10.472516 L6.86216495,11.5331761 L6.50861156,11.1796227 L7.56927173,10.1189626 Z M8.9834853,8.70474901 L9.33703869,9.0583024 L8.27637851,10.1189626 L7.92282512,9.76540918 L8.9834853,8.70474901 Z M10.3976989,7.29053545 L10.7512522,7.64408884 L9.69059208,8.70474901 L9.33703869,8.35119562 L10.3976989,7.29053545 Z M11.8119124,5.87632189 L12.1654658,6.22987528 L11.2815823,7.11375875 L11.1048056,7.29053545 L10.7512522,6.93698206 L10.9280289,6.76020536 L11.8119124,5.87632189 Z M13.226126,4.46210832 L13.5796794,4.81566171 L13.4029027,4.99243841 L12.6957959,5.69954519 L12.5190192,5.87632189 L12.1654658,5.52276849 L12.3422425,5.3459918 L13.0493493,4.63888502 L13.226126,4.46210832 Z M14.6403395,3.04789476 L14.9938929,3.40144815 L13.9332328,4.46210832 L13.5796794,4.10855493 L14.6403395,3.04789476 Z M16.0545531,1.6336812 L16.4081065,1.98723459 L15.3474463,3.04789476 L14.9938929,2.69434137 L16.0545531,1.6336812 Z M17.4687667,0.219467636 L17.8223201,0.573021026 L17.6455434,0.749797721 L16.7616599,1.6336812 L16.4081065,1.28012781 L16.5848832,1.10335111 L17.29199,0.396244331 L17.4687667,0.219467636 Z" fill="#979797" fill-rule="nonzero" transform="translate(19 1)"/>
    <g>
      <path fill="#EBEBEB" d="M0 0H18V18H0z" transform="translate(1 1)"/>
      <path d="M18,0 L18,18 L0,18 L0,0 L18,0 Z M17.5,0.5 L0.5,0.5 L0.5,17.5 L17.5,17.5 L17.5,0.5 Z" fill="#979797" fill-rule="nonzero" transform="translate(1 1)"/>
      <path d="M17.2205627,16.8670094 L17.6035534,17.25 L17.25,17.6035534 L16.8670094,17.2205627 L17.2205627,16.8670094 Z M15.8063492,15.4527958 L16.6902327,16.3366793 L16.8670094,16.513456 L16.513456,16.8670094 L16.3366793,16.6902327 L15.4527958,15.8063492 L15.8063492,15.4527958 Z M14.3921356,14.0385822 L14.5689123,14.2153589 L15.2760191,14.9224657 L15.4527958,15.0992424 L15.0992424,15.4527958 L14.9224657,15.2760191 L14.2153589,14.5689123 L14.0385822,14.3921356 L14.3921356,14.0385822 Z M12.9779221,12.6243687 L14.0385822,13.6850288 L13.6850288,14.0385822 L12.6243687,12.9779221 L12.9779221,12.6243687 Z M11.5637085,11.2101551 L12.6243687,12.2708153 L12.2708153,12.6243687 L11.2101551,11.5637085 L11.5637085,11.2101551 Z M10.1494949,9.79594155 L11.2101551,10.8566017 L10.8566017,11.2101551 L9.79594155,10.1494949 L10.1494949,9.79594155 Z M8.73528137,8.38172798 L9.79594155,9.44238816 L9.44238816,9.79594155 L8.38172798,8.73528137 L8.73528137,8.38172798 Z M7.32106781,6.96751442 L8.38172798,8.02817459 L8.02817459,8.38172798 L6.96751442,7.32106781 L7.32106781,6.96751442 Z M5.90685425,5.55330086 L6.79073773,6.43718434 L6.96751442,6.61396103 L6.61396103,6.96751442 L6.43718434,6.79073773 L5.55330086,5.90685425 L5.90685425,5.55330086 Z M4.49264069,4.1390873 L4.66941738,4.31586399 L5.37652416,5.02297077 L5.55330086,5.19974747 L5.19974747,5.55330086 L5.02297077,5.37652416 L4.31586399,4.66941738 L4.1390873,4.49264069 L4.49264069,4.1390873 Z M3.07842712,2.72487373 L4.1390873,3.78553391 L3.78553391,4.1390873 L2.72487373,3.07842712 L3.07842712,2.72487373 Z M1.66421356,1.31066017 L2.72487373,2.37132034 L2.37132034,2.72487373 L1.31066017,1.66421356 L1.66421356,1.31066017 Z M0.25,-0.103553391 L0.426776695,0.0732233047 L1.31066017,0.957106781 L0.957106781,1.31066017 L0.0732233047,0.426776695 L-0.103553391,0.25 L0.25,-0.103553391 Z" fill="#979797" fill-rule="nonzero" transform="translate(1 1)"/>
      <path d="M0.498203922,17.1900304 L0.851757312,17.5435838 L0.645543366,17.7497977 L0.46876667,17.9265744 L0.11521328,17.573021 L0.321427227,17.3668071 L0.498203922,17.1900304 Z M1.91241748,15.7758168 L2.26597087,16.1293702 L1.3820874,17.0132537 L1.2053107,17.1900304 L0.851757312,16.836477 L1.02853401,16.6597003 L1.91241748,15.7758168 Z M3.32663105,14.3616033 L3.68018444,14.7151566 L3.50340774,14.8919333 L2.79630096,15.5990401 L2.61952427,15.7758168 L2.26597087,15.4222634 L2.44274757,15.2454867 L3.14985435,14.53838 L3.32663105,14.3616033 Z M4.74084461,12.9473897 L5.094398,13.3009431 L4.03373783,14.3616033 L3.68018444,14.0080499 L4.74084461,12.9473897 Z M6.15505817,11.5331761 L6.50861156,11.8867295 L5.44795139,12.9473897 L5.094398,12.5938363 L6.15505817,11.5331761 Z M7.56927173,10.1189626 L7.92282512,10.472516 L6.86216495,11.5331761 L6.50861156,11.1796227 L7.56927173,10.1189626 Z M8.9834853,8.70474901 L9.33703869,9.0583024 L8.27637851,10.1189626 L7.92282512,9.76540918 L8.9834853,8.70474901 Z M10.3976989,7.29053545 L10.7512522,7.64408884 L9.69059208,8.70474901 L9.33703869,8.35119562 L10.3976989,7.29053545 Z M11.8119124,5.87632189 L12.1654658,6.22987528 L11.2815823,7.11375875 L11.1048056,7.29053545 L10.7512522,6.93698206 L10.9280289,6.76020536 L11.8119124,5.87632189 Z M13.226126,4.46210832 L13.5796794,4.81566171 L13.4029027,4.99243841 L12.6957959,5.69954519 L12.5190192,5.87632189 L12.1654658,5.52276849 L12.3422425,5.3459918 L13.0493493,4.63888502 L13.226126,4.46210832 Z M14.6403395,3.04789476 L14.9938929,3.40144815 L13.9332328,4.46210832 L13.5796794,4.10855493 L14.6403395,3.04789476 Z M16.0545531,1.6336812 L16.4081065,1.98723459 L15.3474463,3.04789476 L14.9938929,2.69434137 L16.0545531,1.6336812 Z M17.4687667,0.219467636 L17.8223201,0.573021026 L17.6455434,0.749797721 L16.7616599,1.6336812 L16.4081065,1.28012781 L16.5848832,1.10335111 L17.29199,0.396244331 L17.4687667,0.219467636 Z" fill="#979797" fill-rule="nonzero" transform="translate(1 1)"/>
    </g>
  </g>
</svg>
