<svg xmlns="http://www.w3.org/2000/svg" viewBox="0 0 38 20" class="design-iconfont">
  <g fill="none" fill-rule="evenodd">
    <path fill-opacity=".2011309" fill="#6DD400" transform="rotate(-90 19 9)" d="M9 -9L27 -9 27 27 9 27z"/>
    <path d="M27.25,-9.25 L27.25,27.25 L8.75,27.25 L8.75,-9.25 L27.25,-9.25 Z M26.75,-8.75 L9.25,-8.75 L9.25,26.75 L26.75,26.75 L26.75,-8.75 Z" fill="#979797" fill-rule="nonzero" transform="rotate(-90 19 9)"/>
    <path d="M-0.000229474981,-2.86219919e-05 C4.43929908,0.553647731 7.87462187,4.34080373 7.87462187,8.93032236 C7.87462187,13.519841 4.43929908,17.306997 -0.000229474981,17.8606734 Z" fill-opacity=".2011309" fill="#6DD400" transform="translate(1 1)"/>
    <path d="M-0.250229475,-0.283144134 L0.0307096231,-0.248106779 C4.6328261,0.325846746 8.12462187,4.2521291 8.12462187,8.93032236 C8.12462187,13.6085156 4.6328261,17.534798 0.0307096231,18.1087515 L-0.250229475,18.1437889 L-0.250229475,-0.283144134 Z M0.249,0.288 L0.249,17.572 L0.485960752,17.53239 C4.49509037,16.7873384 7.4973231,13.3270085 7.62067605,9.19496254 L7.62462187,8.93032236 C7.62462187,4.68211347 4.580391,1.08915848 0.485960752,0.328254767 L0.249,0.288 Z" fill="#979797" fill-rule="nonzero" transform="translate(1 1)"/>
    <path d="M27.9997705,-2.86219919e-05 C32.4392991,0.553647731 35.8746219,4.34080373 35.8746219,8.93032236 C35.8746219,13.519841 32.4392991,17.306997 27.9997705,17.8606734 Z" fill-opacity=".2011309" fill="#6DD400" transform="rotate(-180 32.437311 9.430322)"/>
    <path d="M27.75,-0.283144134 L28.0309391,-0.248106779 C32.6330556,0.325846746 36.1248513,4.2521291 36.1248513,8.93032236 C36.1248513,13.6085156 32.6330556,17.534798 28.0309391,18.1087515 L27.75,18.1437889 L27.75,-0.283144134 Z M28.2492295,0.288 L28.2492295,17.572 L28.4861902,17.53239 C32.4953198,16.7873384 35.4975526,13.3270085 35.6209055,9.19496254 L35.6248513,8.93032236 C35.6248513,4.68211347 32.5806205,1.08915848 28.4861902,0.328254767 L28.2492295,0.288 Z" fill="#979797" fill-rule="nonzero" transform="rotate(-180 32.437426 9.430322)"/>
  </g>
</svg>
