<svg xmlns="http://www.w3.org/2000/svg" viewBox="0 0 38 20" class="design-iconfont">
  <g fill="none" fill-rule="evenodd">
    <path fill-opacity=".20484594" fill="#6236FF" transform="rotate(-90 19 9)" d="M9 -9L27 -9 27 27 9 27z"/>
    <path d="M27.25,-9.25 L27.25,27.25 L8.75,27.25 L8.75,-9.25 L27.25,-9.25 Z M26.75,-8.75 L9.25,-8.75 L9.25,26.75 L26.75,26.75 L26.75,-8.75 Z" fill="#979797" fill-rule="nonzero" transform="rotate(-90 19 9)"/>
    <path d="M6.42612622,0.426126218 C6.53596117,0.316291261 6.71403883,0.316291261 6.82387378,0.426126218 C6.93370874,0.535961175 6.93370874,0.714038825 6.82387378,0.823873782 L0.636373782,7.01137378 C0.526538825,7.12120874 0.348461175,7.12120874 0.238626218,7.01137378 C0.128791261,6.90153883 0.128791261,6.72346117 0.238626218,6.61362622 L6.42612622,0.426126218 Z" fill="#979797" fill-rule="nonzero" transform="translate(1 1)"/>
    <path d="M10.3636262,0.426126218 C10.4734612,0.316291261 10.6515388,0.316291261 10.7613738,0.426126218 C10.8712087,0.535961175 10.8712087,0.714038825 10.7613738,0.823873782 L0.636373782,10.9488738 C0.526538825,11.0587087 0.348461175,11.0587087 0.238626218,10.9488738 C0.128791261,10.8390388 0.128791261,10.6609612 0.238626218,10.5511262 L10.3636262,0.426126218 Z" fill="#979797" fill-rule="nonzero" transform="translate(1 1)"/>
    <path d="M32.4261262,0.426126218 C32.5359612,0.316291261 32.7140388,0.316291261 32.8238738,0.426126218 C32.9337087,0.535961175 32.9337087,0.714038825 32.8238738,0.823873782 L22.6988738,10.9488738 C22.5890388,11.0587087 22.4109612,11.0587087 22.3011262,10.9488738 C22.1912913,10.8390388 22.1912913,10.6609612 22.3011262,10.5511262 L32.4261262,0.426126218 Z" fill="#979797" fill-rule="nonzero" transform="translate(1 1)"/>
    <path d="M15.8636262,2.80112622 C15.9734612,2.69129126 16.1515388,2.69129126 16.2613738,2.80112622 C16.3712087,2.91096117 16.3712087,3.08903883 16.2613738,3.19887378 L2.19887378,17.2613738 C2.08903883,17.3712087 1.91096117,17.3712087 1.80112622,17.2613738 C1.69129126,17.1515388 1.69129126,16.9734612 1.80112622,16.8636262 L15.8636262,2.80112622 Z" fill="#979797" fill-rule="nonzero" transform="translate(1 1)"/>
    <path d="M26.9886262,2.80112622 C27.0984612,2.69129126 27.2765388,2.69129126 27.3863738,2.80112622 C27.4962087,2.91096117 27.4962087,3.08903883 27.3863738,3.19887378 L13.3238738,17.2613738 C13.2140388,17.3712087 13.0359612,17.3712087 12.9261262,17.2613738 C12.8162913,17.1515388 12.8162913,16.9734612 12.9261262,16.8636262 L26.9886262,2.80112622 Z" fill="#979797" fill-rule="nonzero" transform="translate(1 1)"/>
    <path d="M13.8636262,0.426126218 C13.9734612,0.316291261 14.1515388,0.316291261 14.2613738,0.426126218 C14.3712087,0.535961175 14.3712087,0.714038825 14.2613738,0.823873782 L9.19887378,5.88637378 C9.08903883,5.99620874 8.91096117,5.99620874 8.80112622,5.88637378 C8.69129126,5.77653883 8.69129126,5.59846117 8.80112622,5.48862622 L13.8636262,0.426126218 Z" fill="#979797" fill-rule="nonzero" transform="translate(1 1)"/>
    <path d="M34.8011262,0.426126218 C34.9109612,0.316291261 35.0890388,0.316291261 35.1988738,0.426126218 C35.3087087,0.535961175 35.3087087,0.714038825 35.1988738,0.823873782 L30.1363738,5.88637378 C30.0265388,5.99620874 29.8484612,5.99620874 29.7386262,5.88637378 C29.6287913,5.77653883 29.6287913,5.59846117 29.7386262,5.48862622 L34.8011262,0.426126218 Z" fill="#979797" fill-rule="nonzero" transform="translate(1 1)"/>
    <path d="M18.6761262,6.73862622 C18.7859612,6.62879126 18.9640388,6.62879126 19.0738738,6.73862622 C19.1837087,6.84846117 19.1837087,7.02653883 19.0738738,7.13637378 L8.94887378,17.2613738 C8.83903883,17.3712087 8.66096117,17.3712087 8.55112622,17.2613738 C8.44129126,17.1515388 8.44129126,16.9734612 8.55112622,16.8636262 L18.6761262,6.73862622 Z" fill="#979797" fill-rule="nonzero" transform="translate(1 1)"/>
    <path d="M10.8011262,11.2386262 C10.9109612,11.1287913 11.0890388,11.1287913 11.1988738,11.2386262 C11.3087087,11.3484612 11.3087087,11.5265388 11.1988738,11.6363738 L5.57387378,17.2613738 C5.46403883,17.3712087 5.28596117,17.3712087 5.17612622,17.2613738 C5.06629126,17.1515388 5.06629126,16.9734612 5.17612622,16.8636262 L10.8011262,11.2386262 Z" fill="#979797" fill-rule="nonzero" transform="translate(1 1)"/>
    <path d="M34.8011262,11.2386262 C34.9109612,11.1287913 35.0890388,11.1287913 35.1988738,11.2386262 C35.3087087,11.3484612 35.3087087,11.5265388 35.1988738,11.6363738 L29.5738738,17.2613738 C29.4640388,17.3712087 29.2859612,17.3712087 29.1761262,17.2613738 C29.0662913,17.1515388 29.0662913,16.9734612 29.1761262,16.8636262 L34.8011262,11.2386262 Z" fill="#979797" fill-rule="nonzero" transform="translate(1 1)"/>
    <path d="M29.8011262,11.2386262 C29.9109612,11.1287913 30.0890388,11.1287913 30.1988738,11.2386262 C30.3087087,11.3484612 30.3087087,11.5265388 30.1988738,11.6363738 L24.5738738,17.2613738 C24.4640388,17.3712087 24.2859612,17.3712087 24.1761262,17.2613738 C24.0662913,17.1515388 24.0662913,16.9734612 24.1761262,16.8636262 L29.8011262,11.2386262 Z" fill="#979797" fill-rule="nonzero" transform="translate(1 1)"/>
  </g>
</svg>
