<svg xmlns="http://www.w3.org/2000/svg" viewBox="0 0 38 20" class="design-iconfont">
  <g fill="none" fill-rule="evenodd">
    <path fill-opacity=".19793488" fill="#FA6400" transform="rotate(-90 19 9)" d="M9 -9L27 -9 27 27 9 27z"/>
    <path d="M27.25,-9.25 L27.25,27.25 L8.75,27.25 L8.75,-9.25 L27.25,-9.25 Z M26.75,-8.75 L9.25,-8.75 L9.25,26.75 L26.75,26.75 L26.75,-8.75 Z" fill="#979797" fill-rule="nonzero" transform="rotate(-90 19 9)"/>
    <path d="M0.865713983,17.2212235 C0.989910143,17.1608997 1.13949316,17.2126784 1.19981701,17.3368746 C1.26014086,17.4610708 1.20836212,17.6106538 1.08416596,17.6709776 L0.265475991,18.068627 C0.141279831,18.1289509 -0.0083031907,18.0771722 -0.0686270396,17.952976 C-0.128950889,17.8287798 -0.0771721503,17.6791968 0.0470240093,17.618873 L0.865713983,17.2212235 Z M2.6647303,16.3474156 C2.78892646,16.2870918 2.93850948,16.3388705 2.99883333,16.4630667 C3.05915718,16.5872628 3.00737844,16.7368458 2.88318228,16.7971697 L1.98367412,17.2340737 C1.85947796,17.2943975 1.70989494,17.2426188 1.64957109,17.1184226 C1.58924724,16.9942265 1.64102598,16.8446434 1.76522214,16.7843196 L2.6647303,16.3474156 Z M4.46374662,15.4736077 C4.58794278,15.4132838 4.7375258,15.4650626 4.79784965,15.5892587 C4.8581735,15.7134549 4.80639476,15.8630379 4.6821986,15.9233618 L3.78269044,16.3602657 C3.65849428,16.4205896 3.50891126,16.3688108 3.44858741,16.2446147 C3.38826356,16.1204185 3.4400423,15.9708355 3.56423846,15.9105117 L4.46374662,15.4736077 Z M6.26276293,14.5997998 C6.38695909,14.5394759 6.53654212,14.5912547 6.59686597,14.7154508 C6.65718981,14.839647 6.60541108,14.98923 6.48121492,15.0495538 L5.58170676,15.4864578 C5.4575106,15.5467817 5.30792758,15.4950029 5.24760373,15.3708068 C5.18727988,15.2466106 5.23905862,15.0970276 5.36325478,15.0367037 L6.26276293,14.5997998 Z M8.06177925,13.7259918 C8.18597541,13.665668 8.33555843,13.7174467 8.39588228,13.8416429 C8.45620613,13.9658391 8.40442739,14.1154221 8.28023123,14.1757459 L7.38072307,14.6126499 C7.25652692,14.6729737 7.10694389,14.621195 7.04662004,14.4969988 C6.9862962,14.3728027 7.03807493,14.2232197 7.16227109,14.1628958 L8.06177925,13.7259918 Z M9.86079557,12.8521839 C9.98499173,12.7918601 10.1345748,12.8436388 10.1948986,12.967835 C10.2552224,13.0920311 10.2034437,13.2416141 10.0792476,13.301938 L9.17973939,13.738842 C9.05554323,13.7991658 8.90596021,13.7473871 8.84563636,13.6231909 C8.78531251,13.4989948 8.83709125,13.3494117 8.96128741,13.2890879 L9.86079557,12.8521839 Z M11.6598119,11.978376 C11.784008,11.9180521 11.9335911,11.9698309 11.9939149,12.094027 C12.0542388,12.2182232 12.00246,12.3678062 11.8782639,12.4281301 L10.9787557,12.865034 C10.8545595,12.9253579 10.7049765,12.8735791 10.6446527,12.749383 C10.5843288,12.6251868 10.6361076,12.4756038 10.7603037,12.41528 L11.6598119,11.978376 Z M13.4588282,11.1045681 C13.5830244,11.0442442 13.7326074,11.096023 13.7929312,11.2202191 C13.8532551,11.3444153 13.8014763,11.4939983 13.6772802,11.5543221 L12.777772,11.9912261 C12.6535759,12.05155 12.5039928,11.9997712 12.443669,11.8755751 C12.3833451,11.7513789 12.4351239,11.6017959 12.55932,11.541472 L13.4588282,11.1045681 Z M15.2578445,10.2307601 C15.3820407,10.1704363 15.5316237,10.222215 15.5919476,10.3464112 C15.6522714,10.4706073 15.6004927,10.6201904 15.4762965,10.6805142 L14.5767883,11.1174182 C14.4525922,11.177742 14.3030092,11.1259633 14.2426853,11.0017671 C14.1823615,10.877571 14.2341402,10.727988 14.3583364,10.6676641 L15.2578445,10.2307601 Z M17.0568608,9.35695222 C17.181057,9.29662837 17.33064,9.3484071 17.3909639,9.47260326 C17.4512877,9.59679942 17.399509,9.74638245 17.2753128,9.80670629 L16.3758047,10.2436103 C16.2516085,10.3039341 16.1020255,10.2521554 16.0417016,10.1279592 C15.9813778,10.003763 16.0331565,9.85418003 16.1573527,9.79385618 L17.0568608,9.35695222 Z M18.8558772,8.48314429 C18.9800733,8.42282044 19.1296563,8.47459918 19.1899802,8.59879534 C19.250304,8.7229915 19.1985253,8.87257452 19.0743291,8.93289837 L18.174821,9.36980233 C18.0506248,9.43012618 17.9010418,9.37834744 17.8407179,9.25415128 C17.7803941,9.12995512 17.8321728,8.9803721 17.956369,8.92004825 L18.8558772,8.48314429 Z M20.6548935,7.60933636 C20.7790896,7.54901252 20.9286727,7.60079125 20.9889965,7.72498741 C21.0493204,7.84918357 20.9975416,7.99876659 20.8733455,8.05909044 L19.9738373,8.49599441 C19.8496411,8.55631826 19.7000581,8.50453952 19.6397343,8.38034336 C19.5794104,8.2561472 19.6311892,8.10656418 19.7553853,8.04624033 L20.6548935,7.60933636 Z M22.4539098,6.73552844 C22.5781059,6.67520459 22.727689,6.72698333 22.7880128,6.85117949 C22.8483367,6.97537565 22.7965579,7.12495867 22.6723618,7.18528252 L21.7728536,7.62218648 C21.6486575,7.68251033 21.4990744,7.63073159 21.4387506,7.50653543 C21.3784267,7.38233927 21.4302055,7.23275625 21.5544016,7.1724324 L22.4539098,6.73552844 Z M24.2529261,5.86172051 C24.3771223,5.80139666 24.5267053,5.8531754 24.5870291,5.97737156 C24.647353,6.10156772 24.5955742,6.25115074 24.4713781,6.31147459 L23.5718699,6.74837856 C23.4476738,6.8087024 23.2980907,6.75692367 23.2377669,6.63272751 C23.177443,6.50853135 23.2292218,6.35894832 23.3534179,6.29862448 L24.2529261,5.86172051 Z M26.0519424,4.98791259 C26.1761386,4.92758874 26.3257216,4.97936748 26.3860455,5.10356364 C26.4463693,5.2277598 26.3945906,5.37734282 26.2703944,5.43766667 L25.3708862,5.87457063 C25.2466901,5.93489448 25.0971071,5.88311574 25.0367832,5.75891958 C24.9764594,5.63472342 25.0282381,5.4851404 25.1524343,5.42481655 L26.0519424,4.98791259 Z M27.8509587,4.11410466 C27.9751549,4.05378081 28.1247379,4.10555955 28.1850618,4.22975571 C28.2453856,4.35395187 28.1936069,4.50353489 28.0694107,4.56385874 L27.1699026,5.0007627 C27.0457064,5.06108655 26.8961234,5.00930781 26.8357995,4.88511166 C26.7754757,4.7609155 26.8272544,4.61133247 26.9514506,4.55100862 L27.8509587,4.11410466 Z M29.6499751,3.24029674 C29.7741712,3.17997289 29.9237542,3.23175163 29.9840781,3.35594779 C30.0444019,3.48014395 29.9926232,3.62972697 29.868427,3.69005082 L28.9689189,4.12695478 C28.8447227,4.18727863 28.6951397,4.13549989 28.6348159,4.01130373 C28.574492,3.88710757 28.6262707,3.73752455 28.7504669,3.6772007 L29.6499751,3.24029674 Z M31.4489914,2.36648881 C31.5731875,2.30616496 31.7227706,2.3579437 31.7830944,2.48213986 C31.8434183,2.60633602 31.7916395,2.75591904 31.6674434,2.81624289 L30.7679352,3.25314685 C30.643739,3.3134707 30.494156,3.26169196 30.4338322,3.1374958 C30.3735083,3.01329964 30.4252871,2.86371662 30.5494832,2.80339277 L31.4489914,2.36648881 Z M33.2480077,1.49268089 C33.3722039,1.43235704 33.5217869,1.48413578 33.5821107,1.60833193 C33.6424346,1.73252809 33.5906558,1.88211112 33.4664597,1.94243497 L32.5669515,2.37933893 C32.4427554,2.43966278 32.2931723,2.38788404 32.2328485,2.26368788 C32.1725246,2.13949172 32.2243034,1.9899087 32.3484995,1.92958485 L33.2480077,1.49268089 Z M35.047024,0.61887296 C35.1712202,0.558549111 35.3208032,0.61032785 35.381127,0.734524009 C35.4414509,0.858720169 35.3896722,1.00830319 35.265476,1.06862704 L34.3659678,1.505531 C34.2417717,1.56585485 34.0921887,1.51407611 34.0318648,1.38987995 C33.971541,1.26568379 34.0233197,1.11610077 34.1475159,1.05577692 L35.047024,0.61887296 Z" fill="#979797" fill-rule="nonzero" transform="translate(1 1)"/>
  </g>
</svg>
