<svg xmlns="http://www.w3.org/2000/svg" viewBox="0 0 38 20" class="design-iconfont">
  <g fill="none" fill-rule="evenodd">
    <path fill-opacity=".20132211" fill="#0091FF" transform="rotate(-90 19 9)" d="M9 -9L27 -9 27 27 9 27z"/>
    <path d="M27.25,-9.25 L27.25,27.25 L8.75,27.25 L8.75,-9.25 L27.25,-9.25 Z M26.75,-8.75 L9.25,-8.75 L9.25,26.75 L26.75,26.75 L26.75,-8.75 Z" fill="#979797" fill-rule="nonzero" transform="rotate(-90 19 9)"/>
    <path d="M3.99043691,3.81327691 L3.99043691,1.99817268 L4.84153961,1.11788609 C4.94647008,1.0127191 4.94647008,0.853021095 4.84153961,0.743959035 C4.73660914,0.638792052 4.57727028,0.638792052 4.46845349,0.743959035 L3.99043691,1.25031858 L3.99043691,0.264865001 C3.99043691,0.1324325 3.88550644,0 3.72616759,0 C3.56682873,0 3.46189826,0.105166983 3.46189825,0.264865001 L3.46189825,1.25031858 L2.97999536,0.771224543 C2.87506489,0.66605756 2.71572603,0.66605756 2.60690925,0.771224543 C2.50197878,0.876391526 2.50197878,1.03608953 2.60690925,1.14515159 L3.45801194,1.99817268 L3.45801194,3.78601139 L1.88794121,2.87845928 L1.5692635,1.70604217 C1.5420593,1.57360967 1.38272044,1.49181313 1.25058577,1.51907865 C1.1184511,1.57360967 1.03683852,1.70604217 1.06404272,1.86574019 L1.25058577,2.53179775 L0.399483077,2.0254382 C0.267348409,1.97090717 0.108009551,1.99817268 0.0263969643,2.13060518 C-0.0280114241,2.26303768 -0.000807234444,2.42273569 0.131327434,2.50453223 L0.982430128,3.01089178 L0.321756807,3.19785531 C0.189622139,3.22512083 0.0808053618,3.38481883 0.13521375,3.51725133 C0.162417949,3.64968383 0.321756807,3.75874588 0.453891465,3.70421485 L1.62367188,3.38481883 L3.19374261,4.26510543 L1.62367188,5.17265755 L0.453891465,4.85326152 C0.321756797,4.82599601 0.16241794,4.90779255 0.13521375,5.04022505 C0.108009551,5.17265755 0.189622139,5.33235556 0.321756807,5.35962107 L0.986316445,5.5465846 L0.13521375,6.02567863 C0.00307908227,6.10747518 -0.0241251074,6.26717319 0.030283281,6.39960569 C0.111895868,6.53203819 0.271234726,6.55930369 0.403369394,6.50477267 L1.25447209,5.99841312 L1.06792903,6.66447068 C1.04072483,6.79690318 1.12233742,6.95660119 1.25447209,6.9838667 C1.38660676,7.01113222 1.54594561,6.92933568 1.5731498,6.79690318 L1.89182753,5.62448607 L3.43469406,4.71693395 L3.43469406,6.52814311 L2.58359136,7.4084297 C2.4786609,7.51359669 2.4786609,7.67329469 2.58359136,7.78235675 C2.68852183,7.88752374 2.84786069,7.88752374 2.95667748,7.78235675 L3.43469406,7.30326272 L3.43469406,8.26145079 C3.43469406,8.39388329 3.53962453,8.52631579 3.69896339,8.52631579 C3.85830224,8.52631579 3.96323271,8.42114881 3.96323271,8.26145079 L3.96323271,7.30326272 L4.4412493,7.78235675 C4.54617976,7.88752374 4.70551862,7.88752374 4.81433541,7.78235675 C4.91926588,7.67718977 4.91926588,7.51749176 4.81433541,7.4084297 L3.99043691,6.52814311 L3.99043691,4.71693395 L5.56050763,5.62448607 L5.90638956,6.82416869 C5.93359376,6.95660119 6.09293261,7.03839773 6.22506727,7.01113221 C6.35720194,6.98386669 6.46601872,6.82416869 6.41161033,6.69173619 L6.22506727,6.02567863 L7.04896578,6.50477267 C7.18110044,6.58656921 7.3404393,6.53203819 7.42205189,6.39960569 C7.50366448,6.26717319 7.44925609,6.10747518 7.31712142,6.02567863 L6.49322292,5.5465846 L7.15778255,5.35962107 C7.28991722,5.33235556 7.398734,5.17265755 7.34432561,5.04022505 C7.31712141,4.90779255 7.15778255,4.7987305 7.02564789,4.85326152 L5.82866328,5.14539203 L4.25859256,4.26510543 L5.82866328,3.35755332 L7.02564789,3.64968383 C7.15778256,3.67694934 7.31712142,3.5951528 7.34432561,3.4627203 C7.37152981,3.3302878 7.28991722,3.17058979 7.15778255,3.14332427 L6.48933661,2.96025583 L7.3132351,2.48116179 C7.44536977,2.42663077 7.47257396,2.26693275 7.41816557,2.13450026 C7.33655299,2.00206776 7.17721413,1.97480225 7.04507946,2.02933327 L6.22118096,2.50842731 L6.38051982,1.84236975 C6.40772402,1.70993725 6.32611143,1.55023924 6.19397677,1.52297372 C6.0618421,1.49570821 5.90250324,1.57750475 5.87529904,1.70993725 L5.52941713,2.90961987 L3.99043691,3.81327691 Z" transform="translate(15.736842 5.894737)" fill="#979797" fill-rule="nonzero"/>
    <path d="M35,1 L35,17 L1,17 L1,1 L35,1 Z M34.7068966,1.24242424 L1.29310345,1.24242424 L1.29310345,16.7575758 L34.7068966,16.7575758 L34.7068966,1.24242424 Z" fill="#979797" fill-rule="nonzero" transform="translate(1 1)"/>
  </g>
</svg>
