<svg xmlns="http://www.w3.org/2000/svg" viewBox="0 0 38 20" class="design-iconfont">
  <g transform="translate(1 1)" fill="none" fill-rule="evenodd">
    <rect fill-opacity=".20222356" fill="#44D7B6" width="36" height="18" rx="1"/>
    <path d="M35,-0.25 C35.6903559,-0.25 36.25,0.309644063 36.25,1 L36.25,17 C36.25,17.6903559 35.6903559,18.25 35,18.25 L1,18.25 C0.309644063,18.25 -0.25,17.6903559 -0.25,17 L-0.25,1 C-0.25,0.309644063 0.309644063,-0.25 1,-0.25 L35,-0.25 Z M35,0.25 L1,0.25 C0.585786438,0.25 0.25,0.585786438 0.25,1 L0.25,17 C0.25,17.4142136 0.585786438,17.75 1,17.75 L35,17.75 C35.4142136,17.75 35.75,17.4142136 35.75,17 L35.75,1 C35.75,0.585786438 35.4142136,0.25 35,0.25 Z" fill="#979797" fill-rule="nonzero"/>
    <path fill="#979797" d="M2.88 1.7999999999999998A1.08 1.08 0 1 0 2.88 3.96A1.08 1.08 0 1 0 2.88 1.7999999999999998Z"/>
    <path fill="#979797" d="M2.88 13.68A1.08 1.08 0 1 0 2.88 15.84A1.08 1.08 0 1 0 2.88 13.68Z"/>
    <path fill="#979797" d="M33.12 1.7999999999999998A1.08 1.08 0 1 0 33.12 3.96A1.08 1.08 0 1 0 33.12 1.7999999999999998Z"/>
    <path fill="#979797" d="M33.12 13.68A1.08 1.08 0 1 0 33.12 15.84A1.08 1.08 0 1 0 33.12 13.68Z"/>
  </g>
</svg>
