<?xml version="1.0" standalone="no"?><!DOCTYPE svg PUBLIC "-//W3C//DTD SVG 1.1//EN" "http://www.w3.org/Graphics/SVG/1.1/DTD/svg11.dtd"><svg t="1705993606340" class="icon" viewBox="0 0 1024 1024" version="1.1" xmlns="http://www.w3.org/2000/svg" p-id="3096" xmlns:xlink="http://www.w3.org/1999/xlink" width="200" height="200"><path d="M0 0m123.586207 0l776.827586 0q123.586207 0 123.586207 123.586207l0 776.827586q0 123.586207-123.586207 123.586207l-776.827586 0q-123.586207 0-123.586207-123.586207l0-776.827586q0-123.586207 123.586207-123.586207Z" fill="#FFFFFF" p-id="3097"></path><path d="M900.413793 0a123.586207 123.586207 0 0 1 123.586207 123.586207v776.827586a123.586207 123.586207 0 0 1-123.586207 123.586207H123.586207a123.586207 123.586207 0 0 1-123.586207-123.586207V123.586207a123.586207 123.586207 0 0 1 123.586207-123.586207h776.827586z m0 24.717241H123.586207A98.868966 98.868966 0 0 0 24.717241 123.586207v776.827586A98.868966 98.868966 0 0 0 123.586207 999.282759h776.827586a98.868966 98.868966 0 0 0 98.868966-98.868966V123.586207A98.868966 98.868966 0 0 0 900.413793 24.717241z" fill="#979797" p-id="3098"></path><path d="M600.275862 300.137931a141.241379 141.241379 0 0 1 141.241379 141.241379v158.896552a141.241379 141.241379 0 0 1-141.241379 141.241379h-158.896552a141.241379 141.241379 0 0 1-141.241379-141.241379v-158.896552a141.241379 141.241379 0 0 1 141.241379-141.241379h158.896552z m0 24.717241h-158.896552a116.524138 116.524138 0 0 0-116.524138 116.524138v158.896552a116.524138 116.524138 0 0 0 116.524138 116.524138h158.896552a116.524138 116.524138 0 0 0 116.524138-116.524138v-158.896552a116.524138 116.524138 0 0 0-116.524138-116.524138z" fill="#979797" p-id="3099"></path><path d="M539.188966 524.676414c-4.184276-3.831172-9.004138-6.850207-9.004138-6.850207a74.010483 74.010483 0 0 0-10.946207-5.843862C540.777931 502.395586 564.965517 478.208 564.965517 441.37931h-45.620965c-0.635586 18.590897-2.966069 40.218483-18.025931 64.794483-14.018207 22.192552-19.791448 29.73131-24.628966 52.894897h29.342897s2.330483-9.410207 1.889103-23.092966c9.004138 15.236414 12.288 30.031448 11.440552 46.609655C548.034207 582.62069 564.965517 582.62069 564.965517 582.62069c0.052966-26.729931-13.153103-46.415448-25.776551-57.944276" fill="#345FA5" p-id="3100"></path><path d="M494.344828 459.034483l-35.310345 0.141241V529.655172s28.830897-28.742621 35.310345-70.620689" fill="#3AA76F" p-id="3101"></path></svg>