<?xml version="1.0" standalone="no"?><!DOCTYPE svg PUBLIC "-//W3C//DTD SVG 1.1//EN" "http://www.w3.org/Graphics/SVG/1.1/DTD/svg11.dtd"><svg t="1705993690844" class="icon" viewBox="0 0 1024 1024" version="1.1" xmlns="http://www.w3.org/2000/svg" p-id="3239" xmlns:xlink="http://www.w3.org/1999/xlink" width="200" height="200"><path d="M0 0m512 0l0 0q512 0 512 512l0 0q0 512-512 512l0 0q-512 0-512-512l0 0q0-512 512-512Z" fill="#FFFFFF" p-id="3240"></path><path d="M512 0c282.765241 0 512 229.234759 512 512S794.765241 1024 512 1024 0 794.765241 0 512 229.234759 0 512 0z m0 24.717241C242.882207 24.717241 24.717241 242.882207 24.717241 512c0 269.117793 218.164966 487.282759 487.282759 487.282759 269.117793 0 487.282759-218.164966 487.282759-487.282759C999.282759 242.882207 781.117793 24.717241 512 24.717241z" fill="#979797" p-id="3241"></path><path d="M600.275862 300.137931a141.241379 141.241379 0 0 1 141.241379 141.241379v158.896552a141.241379 141.241379 0 0 1-141.241379 141.241379h-158.896552a141.241379 141.241379 0 0 1-141.241379-141.241379v-158.896552a141.241379 141.241379 0 0 1 141.241379-141.241379h158.896552z m0 24.717241h-158.896552a116.524138 116.524138 0 0 0-116.524138 116.524138v158.896552a116.524138 116.524138 0 0 0 116.524138 116.524138h158.896552a116.524138 116.524138 0 0 0 116.524138-116.524138v-158.896552a116.524138 116.524138 0 0 0-116.524138-116.524138z" fill="#979797" p-id="3242"></path><path d="M539.188966 524.676414c-4.184276-3.831172-9.004138-6.850207-9.004138-6.850207a74.010483 74.010483 0 0 0-10.946207-5.843862C540.777931 502.395586 564.965517 478.208 564.965517 441.37931h-45.620965c-0.635586 18.590897-2.966069 40.218483-18.025931 64.794483-14.018207 22.192552-19.791448 29.73131-24.628966 52.894897h29.342897s2.330483-9.410207 1.889103-23.092966c9.004138 15.236414 12.288 30.031448 11.440552 46.609655C548.034207 582.62069 564.965517 582.62069 564.965517 582.62069c0.052966-26.729931-13.153103-46.415448-25.776551-57.944276" fill="#345FA5" p-id="3243"></path><path d="M494.344828 459.034483l-35.310345 0.141241V529.655172s28.830897-28.742621 35.310345-70.620689" fill="#3AA76F" p-id="3244"></path></svg>