<?xml version="1.0" standalone="no"?><!DOCTYPE svg PUBLIC "-//W3C//DTD SVG 1.1//EN" "http://www.w3.org/Graphics/SVG/1.1/DTD/svg11.dtd"><svg t="1705635731087" class="icon" viewBox="0 0 1680 1024" version="1.1" xmlns="http://www.w3.org/2000/svg" p-id="1969" xmlns:xlink="http://www.w3.org/1999/xlink" width="328.125" height="200"><path d="M13.128205 1010.871795V13.128205h1654.153846v997.74359z" fill="#0091FF" fill-opacity=".201" p-id="1970"></path><path d="M13.128205 13.128205h1654.153846v997.74359H13.128205V13.128205z m26.25641 26.25641v945.23077h1601.641026v-945.23077h-1601.641026z" fill="#979797" p-id="1971"></path><path d="M825.081436 500.184615v-100.614564l47.182769-48.78441a14.493538 14.493538 0 0 0 0-20.742564 14.414769 14.414769 0 0 0-20.690051 0l-26.492718 28.094359v-54.613333c0-7.351795-5.802667-14.70359-14.651077-14.70359-8.822154 0-14.651077 5.828923-14.651077 14.70359v54.613333l-26.702769-26.571487a14.414769 14.414769 0 0 0-20.690051 0 14.493538 14.493538 0 0 0 0 20.742564l47.182769 47.261538v99.117949l-87.013744-50.307282-17.670564-64.984615c-1.522872-7.351795-10.345026-11.894154-17.670564-10.371282a17.014154 17.014154 0 0 0-10.345026 19.219692l10.345026 36.916513-47.182769-28.094359c-7.325538-2.993231-16.147692-1.496615-20.663795 5.855179-3.019487 7.351795-1.522872 16.200205 5.802667 20.742564l47.182769 28.041846-36.627693 10.371282c-7.325538 1.522872-13.338256 10.371282-10.345025 17.696821 1.522872 7.351795 10.345026 13.390769 17.670564 10.371282l64.853333-17.69682 87.013744 48.78441-87.013744 50.307282-64.853333-17.696821c-7.325538-1.522872-16.147692 3.019487-17.670564 10.345026-1.496615 7.351795 3.019487 16.200205 10.345025 17.723077l36.837744 10.345026-47.182769 26.571487c-7.299282 4.542359-8.822154 13.390769-5.802667 20.742564 4.516103 7.325538 13.364513 8.822154 20.690051 5.802666l47.156513-28.068102-10.318769 36.916513c-1.522872 7.351795 2.993231 16.200205 10.318769 17.723077 7.351795 1.496615 16.173949-3.019487 17.670564-10.371282l17.670564-64.984616 85.517129-50.307282v100.404513l-47.18277 48.78441a14.493538 14.493538 0 0 0 0 20.742564 14.414769 14.414769 0 0 0 20.690052 0l26.492718-26.571487v53.116718c0 7.351795 5.828923 14.677333 14.651077 14.677333 8.822154 0 14.651077-5.828923 14.651077-14.703589v-53.090462l26.492717 26.545231a14.414769 14.414769 0 0 0 20.690052 0 14.493538 14.493538 0 0 0 0-20.716308l-45.686154-48.78441v-100.404513l87.04 50.307282 19.167179 66.507487c1.496615 7.351795 10.345026 11.867897 17.670564 10.345026 7.325538-1.496615 13.338256-10.345026 10.345026-17.69682l-10.345026-36.916513 45.686154 26.54523c7.299282 4.542359 16.121436 1.522872 20.663795-5.828923 4.516103-7.351795 1.496615-16.173949-5.828923-20.742564l-45.686154-26.518974 36.864-10.371282c7.325538-1.522872 13.364513-10.371282 10.345026-17.723077-1.522872-7.351795-10.345026-13.390769-17.670564-10.345026l-66.349949 16.173949-87.04-48.78441 87.04-50.307282 66.349949 16.200205c7.325538 1.496615 16.147692-3.019487 17.670564-10.371282 1.496615-7.351795-3.019487-16.200205-10.345026-17.696821l-37.047795-10.16123 45.686154-26.545231c7.299282-3.019487 8.795897-11.867897 5.776411-19.219693-4.516103-7.351795-13.338256-8.84841-20.663795-5.828923l-45.686154 26.571488 8.84841-36.94277c1.496615-7.351795-3.019487-16.173949-10.345026-17.69682-7.325538-1.496615-16.147692 3.019487-17.670564 10.371282l-19.167179 66.507487-85.307077 50.070974z" fill="#979797" p-id="1972"></path><path d="M1601.641026 78.769231v866.461538H78.769231V78.769231h1522.871795z m-13.128205 13.128205h-1496.615385v840.205128h1496.615385v-840.205128z" fill="#979797" p-id="1973"></path></svg>