<?xml version="1.0" standalone="no"?><!DOCTYPE svg PUBLIC "-//W3C//DTD SVG 1.1//EN" "http://www.w3.org/Graphics/SVG/1.1/DTD/svg11.dtd"><svg t="1705642464537" class="icon" viewBox="0 0 3680 1024" version="1.1" xmlns="http://www.w3.org/2000/svg" p-id="2111" xmlns:xlink="http://www.w3.org/1999/xlink" width="718.75" height="200"><path d="M0 1023.979841V0.020479h3679.853956v1023.959362z" fill="#6236FF" fill-opacity=".205" p-id="2112"></path><path d="M0 0.020479h3679.853956v1023.959362H0V0.020479z m31.99873 31.99873v959.961902h3615.856496V32.019209H31.99873z" fill="#979797" p-id="2113"></path><path d="M1124.627366 4.692294a15.999365 15.999365 0 0 1 22.655101 22.655101l-351.98603 351.98603a15.999365 15.999365 0 0 1-22.655101-22.655101l351.98603-351.98603zM676.645146 4.692294a15.999365 15.999365 0 0 1 22.655101 22.655101l-351.986031 351.98603a15.999365 15.999365 0 0 1-22.655101-22.655101l351.986031-351.98603zM1348.618477 4.692294a15.999365 15.999365 0 0 1 22.655101 22.655101l-575.977141 575.977141a15.999365 15.999365 0 0 1-22.655101-22.655101l575.977141-575.977141zM2660.566409 4.692294a15.999365 15.999365 0 0 1 22.655101 22.655101l-575.977141 575.977141a15.999365 15.999365 0 0 1-22.655101-22.655101l575.977141-575.977141zM1604.608317 196.684674a15.999365 15.999365 0 0 1 22.655101 22.655101l-799.968251 799.968251a15.999365 15.999365 0 0 1-22.655101-22.655101l799.968251-799.968251zM2180.585458 196.684674a15.999365 15.999365 0 0 1 22.655101 22.655101l-799.968251 799.968251a15.999365 15.999365 0 0 1-22.655101-22.655101l799.968251-799.968251zM3524.53212 4.692294a15.999365 15.999365 0 1 1 22.655101 22.655101l-799.968251 799.968251a15.999365 15.999365 0 0 1-22.655101-22.655101l799.968251-799.968251zM1604.608317 4.692294a15.999365 15.999365 0 0 1 22.655101 22.655101l-287.98857 287.98857a15.999365 15.999365 0 0 1-22.655101-22.655101l287.98857-287.98857zM3268.54228 4.692294a15.999365 15.999365 0 1 1 22.655101 22.655101l-287.988571 287.98857a15.999365 15.999365 0 0 1-22.655101-22.655101l287.988571-287.98857zM2852.558789 4.692294a15.999365 15.999365 0 0 1 22.655101 22.655101l-287.988571 287.98857a15.999365 15.999365 0 0 1-22.6551-22.655101l287.98857-287.98857zM1764.601967 420.675784a15.999365 15.999365 0 0 1 22.655101 22.655101l-575.977141 575.977141a15.999365 15.999365 0 0 1-22.655101-22.655101l575.977141-575.977141zM3076.549899 4.692294a15.999365 15.999365 0 0 1 22.655101 22.655101l-575.977141 575.977141a15.999365 15.999365 0 0 1-22.6551-22.655101l575.97714-575.977141zM3652.52704 196.684674a15.999365 15.999365 0 1 1 22.655101 22.655101l-415.98349 415.983491a15.999365 15.999365 0 1 1-22.655101-22.655101l415.98349-415.983491zM1316.619747 676.665625a15.999365 15.999365 0 0 1 22.655101 22.655101l-319.987301 319.9873a15.999365 15.999365 0 0 1-22.655101-22.655101l319.987301-319.9873zM868.925515 4.436304a15.999365 15.999365 0 0 1 22.079123 23.16708l-703.972061 671.973332a15.999365 15.999365 0 0 1-22.079124-23.167081l703.972062-671.973331z" fill="#979797" p-id="2114"></path></svg>